PathFileType	4	(X/Y/Z)	E:\Qualisys_Data\Carbon_Farble_Plate\Data\Amateur_Runner\S14\T3\S14T3V22_c3d.trc
DataRate	CameraRate	NumFrames	NumMarkers	Units	OrigDataRate	OrigDataStartFrame	OrigNumFrames
200.000000	200.000000	4	39	mm	200.000000	151	302
Frame#	Time	LSHO			RSHO			LICST			RICST			LASIS			LHEEL			RASIS			LTROC			RTROC			SACR			LTH1			LSK4			LTH2			LTH3			RHM5			LSK2			LTH4			RTH1			LTOE			RTH2			RTH3			RTH4			LLEP			RLEP			LSK1			LSK3			RSK1			LHM5			RSK2			LFT1			RSK3			RSK4			LLME			RLME			RTOE			RHEEL			RFT1			RFT2			LFT2			
		X1	Y1	Z1	X2	Y2	Z2	X3	Y3	Z3	X4	Y4	Z4	X5	Y5	Z5	X6	Y6	Z6	X7	Y7	Z7	X8	Y8	Z8	X9	Y9	Z9	X10	Y10	Z10	X11	Y11	Z11	X12	Y12	Z12	X13	Y13	Z13	X14	Y14	Z14	X15	Y15	Z15	X16	Y16	Z16	X17	Y17	Z17	X18	Y18	Z18	X19	Y19	Z19	X20	Y20	Z20	X21	Y21	Z21	X22	Y22	Z22	X23	Y23	Z23	X24	Y24	Z24	X25	Y25	Z25	X26	Y26	Z26	X27	Y27	Z27	X28	Y28	Z28	X29	Y29	Z29	X30	Y30	Z30	X31	Y31	Z31	X32	Y32	Z32	X33	Y33	Z33	X34	Y34	Z34	X35	Y35	Z35	X36	Y36	Z36	X37	Y37	Z37	X38	Y38	Z38	X39	Y39	Z39	

152	0.755	134.2575378417969	1452.521850585938	-522.5059204101562	48.00188064575195	1459.670166015625	-241.7098388671875	73.92496490478516	999.4962158203124	-507.5343322753906	79.03446960449219	1009.925720214844	-232.0130462646484	110.6681365966797	947.49560546875	-484.4207458496094	-500.9561767578125	477.3327026367188	-380.8004760742188	107.8020477294922	970.623046875	-252.1425476074219	-37.40652847290039	894.7450561523438	-531.5549926757812	-18.69573211669922	882.7046508789062	-195.6710662841797	-63.83110046386719	1003.734497070312	-380.6890869140625	-35.17898941040039	659.1884155273438	-526.5267333984375	-330.8782653808594	508.5571899414062	-468.4253845214844	-109.7962036132812	681.1378784179688	-502.384765625	-55.34728622436523	562.6410522460938	-506.7957153320312	431.936767578125	141.6045227050781	-208.8767700195312	-238.4765167236328	535.0941162109375	-494.3298034667969	-131.1315155029297	585.7515869140625	-486.3970336914062	176.7497100830078	705.9413452148438	-197.6096649169922	-541.3853149414062	218.0455322265625	-401.7711486816406	104.0087661743164	675.1284790039062	-184.5302124023438	214.2746429443359	617.8272705078125	-229.0149688720703	138.6870574951172	583.07080078125	-209.3302917480469	-131.9477844238281	521.4448852539062	-502.18017578125	195.2457580566406	533.0186767578125	-218.0283660888672	-214.8130950927734	455.7371215820312	-493.5802612304688	-311.4014282226562	429.4409790039062	-473.1214294433594	246.6962280273438	424.0202026367188	-216.6320953369141	-559.7119750976562	289.9856262207031	-456.765869140625	165.5944976806641	397.6444091796875	-221.3422088623047	-524.9951171875	466.7081604003906	-349.9627685546875	273.0827331542969	324.0142517089844	-228.3367462158203	196.9099426269531	306.2097473144531	-232.7569732666016	-488.1878051757812	423.785888671875	-440.8496398925781	288.5962524414062	143.0394592285156	-249.8621063232422	491.4281616210938	196.5600433349609	-266.4132995605469	256.8746337890625	90.66323852539062	-309.8830261230469	283.59423828125	75.87284088134766	-338.9419860839844	263.2083435058594	66.56305694580078	-290.0299987792969	-532.65234375	478.5283508300781	-400.159423828125
153	0.76	154.2911987304688	1449.507934570312	-522.4473876953125	68.30682373046875	1456.069580078125	-241.3878021240234	94.05825042724608	996.3373413085938	-507.9599914550781	98.62879943847656	1007.28662109375	-231.9096069335938	131.0476989746094	944.9534301757812	-484.3984680175781	-475.5164489746094	483.6429443359375	-381.0264282226562	127.4477081298828	968.0151977539062	-252.07958984375	-16.56986236572266	890.8592529296875	-532.3468627929688	0.4527061879634857	879.1578369140625	-195.9206237792969	-43.61888885498047	1000.162414550781	-381.4218444824219	-10.87468814849854	654.6030883789062	-526.925048828125	-304.4002685546875	508.9717102050781	-470.55126953125	-86.21375274658203	675.5316772460938	-503.3011169433594	-29.84691619873047	558.3602905273438	-507.6492919921875	448.2218933105469	137.3482360839844	-210.9538421630859	-211.1461029052734	532.5427856445312	-496.3423461914062	-106.1239547729492	579.9826049804688	-487.3106994628906	196.6653594970703	703.619140625	-196.9882507324219	-521.8522338867188	225.4083709716797	-401.76611328125	123.3902130126953	672.7447509765625	-185.8240509033203	234.8133697509766	616.1885986328125	-229.7498626708984	158.652099609375	581.202880859375	-210.9575347900391	-104.9603958129883	514.5	-501.8213195800781	215.1383514404297	531.2288818359375	-218.7702026367188	-190.0439453125	452.3277893066406	-495.0431518554688	-286.9146728515625	429.4959716796875	-474.2753601074219	265.6355590820312	420.2684936523438	-218.2187805175781	-538.4076538085938	297.8569030761719	-457.2183227539062	184.3768310546875	394.7496948242188	-222.2646942138672	-499.3771057128906	473.4977722167969	-350.8032836914062	291.2547302246094	320.1852111816406	-229.9363403320312	214.6623229980469	303.089111328125	-234.0834808349609	-463.6704711914062	429.5668640136719	-441.24658203125	305.2325134277344	139.0330810546875	-252.0138549804688	507.3275756835938	192.447021484375	-268.1934509277344	273.1744689941406	86.90096282958984	-311.7431335449219	300.0950317382812	72.05545043945312	-340.9065246582031	279.84619140625	62.60133361816406	-292.2828674316406	-506.7210388183594	485.6502685546875	-400.7560119628906
154	0.765	174.3037872314453	1445.961547851562	-522.22509765625	88.43390655517578	1452.24609375	-240.7298583984375	114.1356353759766	992.7920532226562	-508.3133544921875	117.6256408691406	1004.392150878906	-232.2772827148438	151.2223968505859	941.7745971679688	-484.4901428222656	-448.72802734375	489.7478942871094	-382.2632751464844	146.8608245849609	965.0374145507812	-251.9652557373047	4.258211612701416	886.5193481445312	-533.1453247070312	19.11714935302734	875.541748046875	-196.6394195556641	-23.90410232543945	995.8662719726562	-381.7185363769531	13.55482482910156	650.2838745117188	-527.2764892578125	-277.5980834960938	508.5767822265625	-472.5625610351562	-62.53948974609375	669.5570678710938	-504.1650390625	-3.860257625579834	553.1257934570312	-508.4994812011719	463.7937316894531	132.7723236083984	-213.3002014160156	-183.5412445068359	529.6773681640625	-498.4996032714844	-80.81781005859375	573.8678588867188	-488.4172973632812	217.177490234375	701.3104858398438	-196.7404937744141	-501.6830139160156	232.6405487060547	-401.734375	143.5676574707031	670.6138916015625	-187.8277130126953	255.3332366943359	614.3687744140625	-230.5486907958984	178.9384613037109	578.7255859375	-213.1312561035156	-77.81141662597656	509.2026672363281	-503.2717895507812	235.0055541992188	528.7420654296875	-219.7540588378906	-164.2351989746094	449.3253784179688	-496.1026611328125	-261.8312683105469	428.7112121582031	-474.7256164550781	284.6898193359375	416.4544677734375	-218.5900421142578	-516.7183227539062	305.1820373535156	-457.3990783691406	202.8133087158203	391.5141296386719	-223.5247497558594	-472.8785705566406	480.1962890625	-351.6182556152344	309.1703186035156	316.1100463867188	-231.1795654296875	232.1766204833984	299.5852355957031	-235.7540588378906	-438.4542541503906	434.8960266113281	-441.8615417480469	320.7490539550781	134.9015350341797	-253.8612823486328	522.946533203125	187.6753540039062	-270.6452331542969	288.8966674804688	82.28667449951172	-313.6726684570312	314.8882751464844	67.71256256103516	-342.584716796875	296.12060546875	58.58908081054688	-293.1914367675781	-479.0584716796875	493.4355163574219	-401.0070190429688
155	0.77	194.1670227050781	1442.535278320312	-522.223388671875	108.5701370239258	1448.014282226562	-240.2599487304688	134.0981750488281	989.149658203125	-508.3646850585938	136.6095123291016	1001.254577636719	-231.5729064941406	171.3961791992188	938.441162109375	-484.598388671875	-421.8258056640625	495.5382385253906	-382.7339782714844	166.5035247802734	962.1632690429688	-251.5621643066406	24.99638366699219	882.036376953125	-533.966796875	37.81759643554688	871.9797973632812	-197.2596740722656	-4.64669132232666	991.7242431640624	-382.5162353515625	37.69438934326172	645.3199462890625	-527.8067016601562	-249.735107421875	508.2195129394531	-474.7978820800781	-38.73699569702148	663.2468872070312	-504.663330078125	21.75050354003906	547.3392333984375	-509.2985229492188	478.7413940429688	127.5479354858398	-215.8599548339844	-155.6289825439453	526.4371948242188	-500.5119323730469	-55.19468307495117	567.1102294921875	-489.2094421386719	237.9311370849609	698.397705078125	-196.7629089355469	-480.2278442382812	239.6302032470703	-402.408447265625	163.8672180175781	668.2146606445312	-189.3050994873047	275.7296752929688	611.8367309570312	-231.2421875	198.6995697021484	576.4271850585938	-215.1105499267578	-51.13679504394531	504.2557983398438	-505.1583251953125	254.9879608154297	526.0134887695312	-220.4192352294922	-138.3140869140625	445.4334106445312	-496.9354248046875	-236.4271697998047	427.9837951660156	-475.3851928710938	303.3056335449219	412.2390747070312	-219.6941375732422	-494.0479431152344	312.5987548828125	-458.0285034179688	220.7986450195312	388.6322021484375	-223.832275390625	-446.1312866210938	486.408935546875	-352.2408752441406	326.2119140625	311.4717712402344	-232.6990814208984	249.1015014648438	296.2984924316406	-236.942138671875	-412.7855529785156	440.055908203125	-442.8453063964844	335.5016174316406	130.5864410400391	-255.3111572265625	537.7772827148438	182.0178680419922	-273.4793701171875	302.2218017578125	78.39226531982422	-314.8168029785156	328.3980407714844	63.10803604125977	-344.0501708984375	308.7667236328125	53.96085357666016	-295.1132507324219	-451.6782836914062	499.5938110351562	-401.6670532226562
